<svg width="32" height="32" viewBox="0 0 32 32" fill="none" xmlns="http://www.w3.org/2000/svg">
<rect width="32" height="32" rx="12" fill="url(#paint0_linear_1245_21725)"/>
<path fill-rule="evenodd" clip-rule="evenodd" d="M15.9194 9.60059H10.9767C8.90984 9.60059 7.4668 11.0249 7.4668 13.066V18.9355C7.4668 20.9767 8.90984 22.4009 10.9767 22.4009H15.9194C17.9862 22.4009 19.4293 20.9767 19.4293 18.9355V13.066C19.4293 11.0249 17.9862 9.60059 15.9194 9.60059ZM15.6085 14.7219C15.6085 14.8229 15.4599 15.0557 15.1626 15.4202C14.8654 15.7848 14.4195 16.2784 13.8249 16.901H15.6001C15.6618 16.901 15.7123 16.9851 15.7516 17.1534C15.7964 17.3161 15.8189 17.5488 15.8189 17.8517C15.8189 18.149 15.7824 18.4126 15.7095 18.6426C15.6422 18.8725 15.5497 18.9875 15.4319 18.9875H11.3345C11.1719 18.9875 11.0541 18.8249 10.9812 18.4995C10.9139 18.1742 10.8802 17.8209 10.8802 17.4395C10.8802 17.3553 11.0373 17.1254 11.3514 16.7496C11.6655 16.3738 12.1394 15.8493 12.7732 15.1763H11.141C10.9896 15.1763 10.9139 14.9323 10.9139 14.4443C10.9139 14.1021 10.9503 13.7796 11.0233 13.4767C11.0962 13.1683 11.1887 13.014 11.3009 13.014H15.1795C15.4655 13.014 15.6085 13.5833 15.6085 14.7219Z" fill="white"/>
<path d="M22.7909 11.6305C23.1655 11.4399 23.605 11.4599 23.9626 11.6851C24.3201 11.9095 24.5335 12.2994 24.5335 12.7256V19.2761C24.5335 19.7032 24.3201 20.0922 23.9626 20.3166C23.7671 20.4387 23.5487 20.5011 23.3285 20.5011C23.145 20.5011 22.9616 20.4578 22.79 20.3703L21.5262 19.7327C21.0586 19.4953 20.7684 19.0188 20.7684 18.4895V13.5114C20.7684 12.9812 21.0586 12.5047 21.5262 12.269L22.7909 11.6305Z" fill="white"/>
<defs>
<linearGradient id="paint0_linear_1245_21725" x1="32" y1="32" x2="-6.07713" y2="20.9599" gradientUnits="userSpaceOnUse">
<stop stop-color="#FF4D67"/>
<stop offset="1" stop-color="#FF8395"/>
</linearGradient>
</defs>
</svg>
